<svg width="720" height="204" viewBox="0 0 720 204" xmlns="http://www.w3.org/2000/svg" font-family="sans-serif" font-size="12">
<text x="10" y="16" fill="#8a97a1" font-size="12">Turns: best known lower and upper bound after each step (times in PT)</text>
<circle cx="324" cy="28" r="4" fill="#c0392b"/><text x="332" y="32" fill="#8a97a1" font-size="11">lower bound</text>
<circle cx="414" cy="28" r="4" fill="#0b7a75"/><text x="422" y="32" fill="#8a97a1" font-size="11">upper bound</text>
<line x1="353.8" y1="40" x2="353.8" y2="170" stroke="#8a97a1" stroke-opacity="0.25" stroke-width="1"/>
<text x="353.8" y="186" text-anchor="middle" fill="#8a97a1" font-size="11">6n</text>
<line x1="425.3" y1="40" x2="425.3" y2="170" stroke="#8a97a1" stroke-opacity="0.25" stroke-width="1"/>
<text x="425.3" y="186" text-anchor="middle" fill="#8a97a1" font-size="11">7n</text>
<line x1="496.9" y1="40" x2="496.9" y2="170" stroke="#8a97a1" stroke-opacity="0.25" stroke-width="1"/>
<text x="496.9" y="186" text-anchor="middle" fill="#8a97a1" font-size="11">8n</text>
<line x1="568.4" y1="40" x2="568.4" y2="170" stroke="#8a97a1" stroke-opacity="0.25" stroke-width="1"/>
<text x="568.4" y="186" text-anchor="middle" fill="#8a97a1" font-size="11">9n</text>
<line x1="640.0" y1="40" x2="640.0" y2="170" stroke="#8a97a1" stroke-opacity="0.25" stroke-width="1"/>
<text x="640.0" y="186" text-anchor="middle" fill="#8a97a1" font-size="11">10n</text>
<text x="268" y="57.0" text-anchor="end" fill="currentColor">Besa, Johnson, Mamano, Osegueda <tspan fill="#8a97a1" font-size="11">· Apr 2019</tspan></text>
<rect x="353.8" y="48.0" width="250.4" height="10" rx="3" fill="#9aa7b0" fill-opacity="0.35"/>
<circle cx="353.8" cy="53.0" r="4" fill="#c0392b"/>
<circle cx="604.2" cy="53.0" r="4" fill="#0b7a75"/>
<text x="346.8" y="57.0" text-anchor="end" fill="#c0392b" font-size="11" font-weight="bold">6n</text>
<text x="611.2" y="57.0" fill="currentColor" font-size="11" font-weight="bold">9.5n</text>
<text x="268" y="83.0" text-anchor="end" fill="currentColor">Parker Williams <tspan fill="#8a97a1" font-size="11">· Jan 2022</tspan></text>
<rect x="353.8" y="74.0" width="232.6" height="10" rx="3" fill="#9aa7b0" fill-opacity="0.35"/>
<circle cx="353.8" cy="79.0" r="4" fill="#c0392b"/>
<circle cx="586.3" cy="79.0" r="4" fill="#0b7a75"/>
<text x="346.8" y="83.0" text-anchor="end" fill="#c0392b" font-size="11" font-weight="bold">6n</text>
<text x="593.3" y="83.0" fill="currentColor" font-size="11" font-weight="bold">9.25n</text>
<text x="268" y="109.0" text-anchor="end" fill="currentColor">Agent Team <tspan fill="#8a97a1" font-size="11">· Oct 1, 5:26 pm</tspan></text>
<rect x="496.9" y="100.0" width="89.4" height="10" rx="3" fill="#0b7a75" fill-opacity="0.35"/>
<circle cx="496.9" cy="105.0" r="4" fill="#c0392b"/>
<circle cx="586.3" cy="105.0" r="4" fill="#0b7a75"/>
<text x="489.9" y="109.0" text-anchor="end" fill="#c0392b" font-size="11" font-weight="bold">8n</text>
<text x="593.3" y="109.0" fill="currentColor" font-size="11" font-weight="bold">9.25n</text>
<text x="268" y="135.0" text-anchor="end" fill="currentColor">Agent Team <tspan fill="#8a97a1" font-size="11">· Oct 1, 5:42 pm</tspan></text>
<rect x="496.9" y="126.0" width="35.8" height="10" rx="3" fill="#0b7a75" fill-opacity="0.35"/>
<circle cx="496.9" cy="131.0" r="4" fill="#c0392b"/>
<circle cx="532.7" cy="131.0" r="4" fill="#0b7a75"/>
<text x="489.9" y="135.0" text-anchor="end" fill="#c0392b" font-size="11" font-weight="bold">8n</text>
<text x="539.7" y="135.0" fill="currentColor" font-size="11" font-weight="bold">8.5n</text>
<text x="268" y="161.0" text-anchor="end" fill="currentColor">Agent Team <tspan fill="#8a97a1" font-size="11">· Oct 1, 6:23 pm</tspan></text>
<rect x="496.9" y="152.0" width="0.5" height="10" rx="3" fill="#0b7a75" fill-opacity="0.35"/>
<circle cx="496.9" cy="157.0" r="4" fill="#c0392b"/>
<circle cx="496.9" cy="157.0" r="4" fill="#0b7a75"/>
<text x="489.9" y="161.0" text-anchor="end" fill="#c0392b" font-size="11" font-weight="bold">8n</text>
<text x="503.9" y="161.0" fill="currentColor" font-size="11" font-weight="bold">8n: closed</text>
</svg>